<?xml version="1.0" encoding="UTF-8"?>
<svg version="1.1" xmlns="http://www.w3.org/2000/svg" width="512" height="512">
<path d="M0 0 C1.03688965 0.24943359 1.03688965 0.24943359 2.09472656 0.50390625 C23.27769322 5.74385219 43.51415113 15.64046664 60 30 C60.84175781 30.7321875 61.68351563 31.464375 62.55078125 32.21875 C65.06536077 34.44714824 67.53838766 36.71334523 70 39 C70.66644531 39.60070312 71.33289063 40.20140625 72.01953125 40.8203125 C82.5140462 50.69498848 93.01322314 64.95188915 97.93041992 78.57836914 C99.04630437 81.41236543 100.08368743 83.62633556 102 86 C105.79039311 87.56594631 109.49574704 87.65918744 113.5625 87.8125 C115.8302158 87.9943235 118.09717261 88.18585471 120.36328125 88.38671875 C122.0505835 88.5266626 122.0505835 88.5266626 123.77197266 88.66943359 C157.81893924 92.15601601 190.79883416 113.06938816 212.58691406 138.87988281 C237.6682527 169.73847097 248.99092607 208.14470703 245.77734375 247.74365234 C243.15981433 272.39359052 234.48837245 293.79751878 222 315 C216.4048836 324.99837368 214.4043572 334.21004893 217.1875 345.4375 C220.64625909 356.89762804 226.88015418 367.48046792 236.5 374.875 C239 377 239 377 240 379.625 C240 382 240 382 238 385 C235.90307617 385.40405273 235.90307617 385.40405273 233.29296875 385.43359375 C232.32456055 385.44511475 231.35615234 385.45663574 230.35839844 385.46850586 C229.31200195 385.45827393 228.26560547 385.44804199 227.1875 385.4375 C226.10887695 385.42920166 225.03025391 385.42090332 223.91894531 385.41235352 C205.60349074 385.03492298 185.56499486 381.14894507 169.421875 372.07421875 C163.27076877 368.6577792 159.69034414 367.52208374 152.75 369.25 C150.65044689 369.88563494 148.56430715 370.55441756 146.47900391 371.23535156 C141.52678604 372.76286253 136.47613513 373.92070363 131.4375 375.125 C130.35605713 375.38522949 129.27461426 375.64545898 128.16040039 375.91357422 C92.15038746 384.4274739 54.95287884 378.16094362 23.171875 359.0625 C14.09110072 353.15776007 5.85868044 346.43810885 -2 339 C-2.94617188 338.12988281 -3.89234375 337.25976562 -4.8671875 336.36328125 C-18.38392861 323.65100282 -29.39924804 307.38415862 -36 290 C-37.19109375 289.86464844 -38.3821875 289.72929687 -39.609375 289.58984375 C-55.98539176 287.56724246 -72.57932754 284.31581825 -88.19482422 278.88989258 C-94.47556436 276.89743846 -99.72167776 280.08865699 -105.3125 282.75 C-123.40326075 291.03111235 -142.10155464 295.18558351 -162 295.375 C-162.96252686 295.38893799 -163.92505371 295.40287598 -164.91674805 295.41723633 C-165.81047119 295.41103271 -166.70419434 295.4048291 -167.625 295.3984375 C-168.42164063 295.39505371 -169.21828125 295.39166992 -170.0390625 295.38818359 C-170.68617188 295.26008301 -171.33328125 295.13198242 -172 295 C-174 292 -174 292 -174.0625 289.6875 C-172.76856108 286.41459567 -170.79483481 285.0753304 -168.1015625 282.9140625 C-158.3759216 274.05613677 -151.14923343 261.06137175 -149.78125 247.89453125 C-149.3256232 237.16831697 -153.43791647 228.76289436 -158.8125 219.7421875 C-178.69883428 186.20175405 -185.52562124 146.60985351 -176.39794922 108.48535156 C-170.15882907 84.17381371 -159.07669399 62.43964928 -142 44 C-141.50129395 43.45746582 -141.00258789 42.91493164 -140.48876953 42.35595703 C-120.6778367 21.04466955 -95.16826374 6.99429072 -67 0 C-66.00468262 -0.24991699 -66.00468262 -0.24991699 -64.98925781 -0.50488281 C-44.61897233 -5.35399464 -20.2891448 -5.04991943 0 0 Z " fill="#00EDD0" transform="translate(223,65)"/>
<path d="M0 0 C34.38975232 -2.08656924 69.836663 14.21048959 95.18798828 36.38720703 C123.02920919 61.16746913 141.59555783 96.47612984 144 134 C145.62835447 168.68965256 137.51838134 198.25768145 120 228 C114.4048836 237.99837368 112.4043572 247.21004893 115.1875 258.4375 C118.64625909 269.89762804 124.88015418 280.48046792 134.5 287.875 C137 290 137 290 138 292.625 C138 295 138 295 136 298 C133.90307617 298.40405273 133.90307617 298.40405273 131.29296875 298.43359375 C130.32456055 298.44511475 129.35615234 298.45663574 128.35839844 298.46850586 C127.31200195 298.45827393 126.26560547 298.44804199 125.1875 298.4375 C124.10887695 298.42920166 123.03025391 298.42090332 121.91894531 298.41235352 C103.60349074 298.03492298 83.56499486 294.14894507 67.421875 285.07421875 C61.27076877 281.6577792 57.69034414 280.52208374 50.75 282.25 C48.65044689 282.88563494 46.56430715 283.55441756 44.47900391 284.23535156 C39.52678604 285.76286253 34.47613513 286.92070363 29.4375 288.125 C28.35605713 288.38522949 27.27461426 288.64545898 26.16040039 288.91357422 C-9.84961254 297.4274739 -47.04712116 291.16094362 -78.828125 272.0625 C-87.90889928 266.15776007 -96.14131956 259.43810885 -104 252 C-104.94617188 251.12988281 -105.89234375 250.25976562 -106.8671875 249.36328125 C-120.332602 236.69927468 -132.54275102 219.80359938 -138 202 C-137.27409668 201.94465088 -136.54819336 201.88930176 -135.80029297 201.83227539 C-132.4916443 201.57843447 -129.18332641 201.32050554 -125.875 201.0625 C-124.73289063 200.97548828 -123.59078125 200.88847656 -122.4140625 200.79882812 C-121.30546875 200.71181641 -120.196875 200.62480469 -119.0546875 200.53515625 C-117.53077393 200.41732788 -117.53077393 200.41732788 -115.97607422 200.29711914 C-112.94369463 200.05569199 -112.94369463 200.05569199 -109.80908203 199.27905273 C-108.88208496 199.18696533 -107.95508789 199.09487793 -107 199 C-106.60612878 199.48152621 -106.21225756 199.96305243 -105.80645084 200.45917034 C-102.97640998 202.87308097 -99.83709235 202.40936716 -96.28770447 202.3742218 C-95.49434317 202.37819621 -94.70098187 202.38217061 -93.88357931 202.38626546 C-91.21639517 202.39591532 -88.5497379 202.38405433 -85.88256836 202.37231445 C-83.97406313 202.37474151 -82.06555916 202.37846 -80.15705872 202.38337708 C-74.96711736 202.3928008 -69.77736409 202.38334852 -64.58743739 202.37004495 C-59.16445678 202.35875062 -53.7414857 202.36283635 -48.3184967 202.36479187 C-39.21156735 202.36567541 -30.10471235 202.35458128 -20.99780273 202.33618164 C-10.45668237 202.31500677 0.08432908 202.31150513 10.62546641 202.3177436 C20.75157621 202.32343046 30.87764751 202.31780002 41.00375175 202.30657005 C45.31991726 202.30191571 49.63605929 202.30105381 53.95222664 202.3031559 C59.03045831 202.30503413 64.1085785 202.29697091 69.18678474 202.2810955 C71.05489643 202.27683892 72.9230194 202.27601126 74.79113388 202.27878571 C77.33244257 202.2819884 79.87341411 202.27297445 82.41468811 202.26069641 C83.16166004 202.26447573 83.90863196 202.26825506 84.67823941 202.27214891 C88.79216831 202.36373379 88.79216831 202.36373379 92 200 C92.2500773 197.45809998 92.2500773 197.45809998 92 195 C90.10271665 193.10271665 86.75349158 193.85437773 84.23606873 193.84178162 C83.52059264 193.83684364 82.80511655 193.83190566 82.06795937 193.82681805 C79.65264921 193.81136886 77.23736577 193.80306249 74.82202148 193.79467773 C73.09775555 193.78510503 71.373492 193.77509532 69.64923096 193.76467896 C64.9531741 193.73755794 60.25710711 193.71658748 55.56101489 193.69667697 C50.65890819 193.67486164 45.75683294 193.64745124 40.85475159 193.62062073 C31.56519385 193.57063342 22.27561871 193.52571707 12.98602682 193.48259836 C2.41302806 193.43327747 -8.15993915 193.37834031 -18.73290741 193.32291877 C-40.48857557 193.20900608 -62.24427382 193.10218737 -84 193 C-81.23234335 191.15489556 -78.48296997 189.83677921 -75.45361328 188.48852539 C-47.33348723 175.87403499 -24.44449046 154.63070764 -9.1875 127.9375 C-8.68234863 127.0561438 -8.68234863 127.0561438 -8.16699219 126.15698242 C-5.77486114 121.80589948 -3.80320817 117.29597198 -1.86450195 112.72875977 C-1.58811134 112.08060555 -1.31172073 111.43245132 -1.02695465 110.76465607 C-0.35011201 109.17694461 0.32510822 107.58854169 1 106 C1.89758026 105.98969254 2.79516052 105.97938507 3.71994019 105.96876526 C12.16645034 105.87090898 20.61288853 105.76841162 29.05927849 105.66066074 C33.40196035 105.60542582 37.74464895 105.55200491 42.08740234 105.50268555 C46.27604265 105.45505039 50.46459978 105.40270789 54.65314102 105.34705925 C56.25355084 105.32663185 57.85398347 105.3079194 59.45443344 105.29092598 C61.69089784 105.26689045 63.92720447 105.23683488 66.16357422 105.20532227 C67.43820526 105.18977798 68.7128363 105.1742337 70.02609253 105.15821838 C72.92820077 105.20217617 72.92820077 105.20217617 75 104 C75.04254356 102.00045254 75.04080783 99.99958364 75 98 C73.13974079 96.13974079 70.03970281 96.82627572 67.55249023 96.79467773 C66.54277664 96.77982834 66.54277664 96.77982834 65.51266479 96.76467896 C63.27801075 96.73298162 61.04333542 96.70827426 58.80859375 96.68359375 C57.26302016 96.66303131 55.71745228 96.64203504 54.17189026 96.62062073 C50.09649268 96.56532663 46.02104375 96.51594987 41.94555664 96.46777344 C37.7898296 96.41761183 33.63417748 96.36189796 29.47851562 96.30664062 C21.3190737 96.19896936 13.15956924 96.09754448 5 96 C5.1778302 95.0894133 5.1778302 95.0894133 5.35925293 94.16043091 C7.82833201 81.32542457 9.7011107 68.95340117 9.5 55.875 C9.4947934 55.1562973 9.48958679 54.4375946 9.48422241 53.69711304 C9.34328882 36.94862049 6.71494961 21.55947091 0.953125 5.8359375 C0 3 0 3 0 0 Z " fill="#00B2FE" transform="translate(325,152)"/>
<path d="M0 0 C0.79265574 -0.00467997 1.58531147 -0.00935994 2.40198708 -0.01418173 C5.06682529 -0.02617937 7.73115376 -0.01665605 10.39599609 -0.00723267 C12.30287985 -0.01129625 14.20976126 -0.01663693 16.11663818 -0.02316284 C21.30250545 -0.03686756 26.48819415 -0.03152478 31.67406464 -0.02202559 C37.09391267 -0.01444532 42.51374513 -0.02147004 47.93359375 -0.02618408 C57.03632358 -0.0316464 66.13898046 -0.02443752 75.24169922 -0.01016235 C85.77487598 0.00616505 96.30787856 0.00087688 106.8410511 -0.01564157 C115.87464454 -0.02924286 124.90818545 -0.03118274 133.94178581 -0.02332556 C139.34152966 -0.01864158 144.74119155 -0.01804408 150.14093018 -0.02793503 C155.2167402 -0.03658269 160.29232503 -0.03062313 165.36811066 -0.01325226 C167.23419063 -0.00927562 169.10028946 -0.01044147 170.966362 -0.01704025 C173.50745546 -0.02519952 176.04782054 -0.01500276 178.58886719 0 C179.33292627 -0.00669217 180.07698536 -0.01338433 180.84359169 -0.02027929 C183.77360582 0.01343471 185.81378778 0.06123875 188.29165649 1.70944786 C189.29443359 3.38095093 189.29443359 3.38095093 189.04443359 6.50595093 C188.29443359 9.38095093 188.29443359 9.38095093 187.29443359 10.38095093 C184.76967358 10.48312951 182.27211748 10.51982074 179.74671936 10.5146637 C178.9468998 10.51692925 178.14708025 10.51919481 177.32302374 10.52152902 C174.62215446 10.52789838 171.92133498 10.52703779 169.22045898 10.5262146 C167.29254592 10.52920426 165.36463346 10.53260633 163.4367218 10.53639221 C158.18474492 10.54525595 152.93278431 10.54757131 147.68080068 10.548208 C143.3042742 10.54915508 138.92775156 10.55283104 134.55122656 10.55638009 C124.23035676 10.56453363 113.90949569 10.5669635 103.58862305 10.56625366 C92.92372184 10.56565258 82.25887117 10.57620836 71.59398276 10.59199733 C62.45345256 10.6050499 53.31293892 10.61043852 44.17239946 10.60979825 C38.70615804 10.6095426 33.2399615 10.6124308 27.77372932 10.6229763 C22.63480401 10.63261902 17.49596682 10.63276293 12.3570385 10.62545967 C10.46634671 10.62440905 8.57564955 10.62680476 6.68496704 10.63282013 C4.11291636 10.64047599 1.54117494 10.6359382 -1.03086853 10.62818909 C-2.16504563 10.63590443 -2.16504563 10.63590443 -3.32213539 10.64377564 C-8.47729518 10.60922215 -8.47729518 10.60922215 -10.70556641 8.38095093 C-11.05042461 5.69105696 -11.13998587 4.06583201 -9.66763306 1.74460411 C-6.65181215 -0.35141733 -3.54311425 -0.03186723 0 0 Z " fill="#F6FEFD" transform="translate(104.70556640625,253.61904907226563)"/>
<path d="M0 0 C4.9290427 0.03039818 9.85808163 0.02773098 14.78720236 0.0293293 C23.03940117 0.03667011 31.29126274 0.06640337 39.54333639 0.11172676 C50.14281046 0.16982361 60.74201636 0.19021269 71.34163237 0.19909096 C80.47293189 0.20703433 89.604173 0.23200912 98.73543072 0.2597847 C101.66681139 0.26798205 104.59819001 0.2738327 107.52957678 0.27937508 C112.11806654 0.28913663 116.70639236 0.30950125 121.29480124 0.33825111 C122.98069801 0.34731426 124.66661684 0.35297849 126.35253668 0.3550663 C128.64556084 0.35854452 130.93817139 0.3742726 133.23111105 0.39334297 C134.5159243 0.3992923 135.80073755 0.40524162 137.12448454 0.41137123 C140.09460592 0.67422676 140.09460592 0.67422676 142.09460592 2.67422676 C142.43944136 5.36394317 142.52922228 6.98921137 141.05667257 9.31015301 C138.04139024 11.40644647 134.93219469 11.09052621 131.38903952 11.06190681 C130.59638378 11.06729235 129.80372805 11.07267789 128.98705244 11.07822663 C126.32222635 11.09257196 123.65789241 11.08538645 120.99304342 11.0782795 C119.08615864 11.08397959 117.17927728 11.09094245 115.27240133 11.09907722 C110.08654357 11.11706253 104.9008545 11.1158303 99.71497488 11.11013484 C95.39062349 11.10705107 91.06630488 11.11312629 86.74195814 11.11917359 C76.54372461 11.13323454 66.34557483 11.13164417 56.1473403 11.12027168 C45.61412701 11.10878547 35.08116817 11.12287107 24.54798841 11.14966816 C15.51439188 11.17179267 6.48087542 11.17846998 -2.5527463 11.17259175 C-7.95252304 11.16921358 -13.3521366 11.17169419 -18.75189066 11.18884277 C-23.82774869 11.2042584 -28.90322835 11.20041646 -33.97907114 11.18153763 C-35.84515416 11.17783693 -37.71126489 11.18100302 -39.57732248 11.19142342 C-42.11859987 11.20453425 -44.65860617 11.19317525 -47.19982767 11.17543221 C-48.3159163 11.18983972 -48.3159163 11.18983972 -49.45455217 11.20453829 C-52.84978352 11.15552858 -54.45868196 11.13214894 -56.88699198 8.64290142 C-57.22306467 7.99323878 -57.55913736 7.34357615 -57.90539408 6.67422676 C-39.38298283 -1.44960071 -19.78754402 -0.1458791 0 0 Z " fill="#F2FBFE" transform="translate(275.905394077301,344.32577323913574)"/>
<path d="M0 0 C0.85803223 -0.00563965 1.71606445 -0.0112793 2.60009766 -0.01708984 C3.53837402 -0.01304138 4.47665039 -0.00899292 5.44335938 -0.00482178 C6.43384277 -0.00832642 7.42432617 -0.01183105 8.44482422 -0.01544189 C11.7256568 -0.02425929 15.00627452 -0.01840996 18.28710938 -0.01165771 C20.56250042 -0.01300436 22.83789119 -0.01494489 25.11328125 -0.01745605 C29.88479346 -0.02040733 34.65623085 -0.01610951 39.42773438 -0.0067749 C45.55145218 0.00461958 51.67499468 -0.00193987 57.79870605 -0.01391983 C62.49806037 -0.02113829 67.19737296 -0.01885055 71.89672852 -0.01366425 C74.15502951 -0.01232771 76.41333426 -0.01397558 78.67163086 -0.01862335 C81.82480949 -0.0236883 84.9777021 -0.01597863 88.13085938 -0.00482178 C89.06913574 -0.00887024 90.00741211 -0.0129187 90.97412109 -0.01708984 C92.26116943 -0.00863037 92.26116943 -0.00863037 93.57421875 0 C94.31973999 0.00075405 95.06526123 0.0015081 95.83337402 0.002285 C97.78710938 0.25396729 97.78710938 0.25396729 100.78710938 2.25396729 C101.09960938 5.25396729 101.09960938 5.25396729 100.78710938 8.25396729 C98.78710938 10.25396729 98.78710938 10.25396729 96.9011898 10.50006294 C96.12872728 10.49821936 95.35626476 10.49637577 94.56039429 10.49447632 C93.67415878 10.49722565 92.78792328 10.49997498 91.87483215 10.50280762 C90.90019516 10.49561707 89.92555817 10.48842651 88.92138672 10.48101807 C87.38476128 10.48145615 87.38476128 10.48145615 85.8170929 10.48190308 C82.41899244 10.48050577 79.02110919 10.46492567 75.62304688 10.44927979 C73.2717806 10.44555108 70.92051277 10.44270344 68.56924438 10.44070435 C62.37137587 10.43305667 56.17360063 10.41339843 49.97576904 10.39129639 C43.65508282 10.37086237 37.33438158 10.36170787 31.01367188 10.35162354 C18.60477666 10.33015362 6.19595076 10.29600401 -6.21289062 10.25396729 C-7.60720566 7.46533722 -7.46949157 5.33317861 -7.21289062 2.25396729 C-4.12434988 0.19494012 -3.4884552 0.00352837 0 0 Z " fill="#F2FEFC" transform="translate(118.212890625,156.74603271484375)"/>
<path d="M0 0 C1.25974388 -0.01062721 1.25974388 -0.01062721 2.54493713 -0.02146912 C3.4681073 -0.0189917 4.39127747 -0.01651428 5.34242249 -0.01396179 C6.31325272 -0.01907272 7.28408295 -0.02418365 8.28433228 -0.02944946 C11.50566203 -0.04339269 14.72677897 -0.04238513 17.94813538 -0.04008484 C20.18011556 -0.04396919 22.41209501 -0.04830331 24.64407349 -0.05307007 C29.32740167 -0.06054248 34.01065448 -0.06023362 38.69398499 -0.05497742 C44.70456932 -0.04918168 50.71484561 -0.06611154 56.72537899 -0.08932209 C61.33638319 -0.1040325 65.94731275 -0.1049348 70.55833626 -0.10181236 C72.77477694 -0.10232694 74.99122166 -0.10759007 77.20763969 -0.11762428 C80.30355389 -0.12991905 83.39886221 -0.12323876 86.49476624 -0.11161804 C87.87648514 -0.12308365 87.87648514 -0.12308365 89.28611755 -0.13478088 C90.12876663 -0.12776657 90.97141571 -0.12075226 91.83959961 -0.11352539 C92.57167098 -0.11369313 93.30374235 -0.11386087 94.0579977 -0.1140337 C96.56875173 0.3746476 97.48024015 1.21645475 98.98329163 3.26069641 C98.79579163 6.38569641 98.79579163 6.38569641 97.98329163 9.26069641 C94.52429311 10.99019567 90.52389932 10.41717104 86.71595764 10.42182922 C85.75488098 10.42679413 84.79380432 10.43175903 83.80360413 10.43687439 C80.61479485 10.45151572 77.42603529 10.45830074 74.23719788 10.46382141 C72.02763873 10.46957054 69.81807961 10.47532829 67.60852051 10.48109436 C62.97229275 10.49160948 58.33608237 10.49744904 53.69984436 10.50093079 C47.74981391 10.50642143 41.80001162 10.5304596 35.85005283 10.55890274 C31.28538332 10.57749481 26.72076918 10.58273285 22.15606499 10.58426666 C19.96194649 10.58730068 17.76782914 10.59535425 15.57374763 10.60845184 C12.50899329 10.62544318 9.44480203 10.62364917 6.38002014 10.61714172 C5.01232735 10.6309639 5.01232735 10.6309639 3.61700439 10.64506531 C2.78276947 10.63949615 1.94853455 10.633927 1.08901978 10.62818909 C0.00197423 10.63038893 0.00197423 10.63038893 -1.10703182 10.63263321 C-3.59314406 10.14842732 -4.48612148 9.24486959 -6.01670837 7.26069641 C-6.32920837 4.69819641 -6.32920837 4.69819641 -6.01670837 2.26069641 C-3.65116111 -0.10485085 -3.20731365 0.00899856 0 0 Z " fill="#FCFEFE" transform="translate(100.01670837402344,205.7393035888672)"/>
<path d="M0 0 C0.91381943 0.00247742 1.82763885 0.00495483 2.76914978 0.00750732 C3.73022644 0.00239639 4.6913031 -0.00271454 5.6815033 -0.00798035 C8.87036807 -0.0219232 12.05901785 -0.02091604 15.24790955 -0.01861572 C17.45746949 -0.02250009 19.66702869 -0.02683422 21.87658691 -0.03160095 C26.51283689 -0.03907329 31.14901074 -0.03876456 35.78526306 -0.0335083 C41.73531445 -0.0277126 47.68505467 -0.04464238 53.63505459 -0.06785297 C58.19973583 -0.08256367 62.76434169 -0.08346564 67.32904243 -0.08034325 C69.52315449 -0.08085781 71.71727062 -0.08612069 73.91135979 -0.09615517 C76.97614303 -0.10845049 80.0403143 -0.10176933 83.10508728 -0.09014893 C84.01688248 -0.09779266 84.92867767 -0.1054364 85.86810303 -0.11331177 C86.70233795 -0.10629745 87.53657288 -0.09928314 88.39608765 -0.09205627 C89.12078467 -0.09222402 89.8454817 -0.09239176 90.59213924 -0.09256458 C93.09185653 0.39794745 94.00617306 1.24545948 95.5018158 3.28216553 C95.06703319 8.71694814 95.06703319 8.71694814 93.5018158 10.28216553 C90.37703247 10.39351649 87.27414913 10.43957217 84.14854431 10.44329834 C83.16650024 10.44826324 82.18445618 10.45322815 81.1726532 10.45834351 C77.90866915 10.47300552 74.64473368 10.4797734 71.38072205 10.48529053 C69.12249753 10.49103811 66.86427305 10.49679589 64.60604858 10.50256348 C59.86549145 10.51308461 55.12495133 10.51892017 50.38438416 10.5223999 C44.29634531 10.52789067 38.20852944 10.55192657 32.12056065 10.58037186 C27.45470513 10.59895193 22.78890385 10.60420133 18.12301445 10.60573578 C15.87783017 10.60877271 13.63264706 10.61683595 11.38749886 10.62992096 C8.25298483 10.64688681 5.11902252 10.64512455 1.98448181 10.63861084 C0.58098732 10.65243301 0.58098732 10.65243301 -0.8508606 10.66653442 C-1.70199432 10.66096527 -2.55312805 10.65539612 -3.43005371 10.6496582 C-4.5425532 10.65185804 -4.5425532 10.65185804 -5.67752743 10.65410233 C-7.4981842 10.28216553 -7.4981842 10.28216553 -9.4981842 7.28216553 C-8.8473928 0.61155363 -6.36852696 0.05426867 0 0 Z " fill="#FAFDFF" transform="translate(322.49818420410156,295.71783447265625)"/>
<path d="M0 0 C9.09230801 -0.04628063 18.18457566 -0.08184737 27.27697563 -0.10362434 C31.4986575 -0.11407464 35.72025895 -0.12825645 39.94189453 -0.15087891 C44.01377277 -0.17256303 48.08557353 -0.18455923 52.15750504 -0.18975449 C53.71329087 -0.19345824 55.26907232 -0.20069046 56.82482529 -0.21146011 C58.99903374 -0.22591638 61.17291942 -0.22798044 63.34716797 -0.22705078 C64.58626923 -0.231492 65.82537048 -0.23593323 67.10202026 -0.24050903 C70 0 70 0 72 2 C72.3125 5 72.3125 5 72 8 C68.31723731 10.45517512 66.53366613 10.24259705 62.1418457 10.22705078 C61.44890411 10.22734283 60.75596252 10.22763489 60.04202271 10.22793579 C57.75314788 10.22654319 55.46459916 10.21098557 53.17578125 10.1953125 C51.58823321 10.19158211 50.00068288 10.18873526 48.41313171 10.18673706 C44.23572426 10.1791026 40.05845599 10.15945575 35.88110352 10.1373291 C31.61802045 10.11686663 27.3549149 10.10773449 23.09179688 10.09765625 C14.72780073 10.07620965 6.36391768 10.042076 -2 10 C-1.34 6.7 -0.68 3.4 0 0 Z " fill="#F5FCFE" transform="translate(329,248)"/>
<path d="M0 0 C1.93727211 -0.01441132 1.93727211 -0.01441132 3.91368103 -0.02911377 C5.3299034 -0.03396099 6.74612782 -0.03824001 8.16235352 -0.04199219 C9.60962425 -0.04774308 11.05689496 -0.05350082 12.50416565 -0.05926514 C15.53972733 -0.06977444 18.57526253 -0.07561777 21.61083984 -0.07910156 C25.50276184 -0.08459059 29.39433472 -0.1086272 33.28614712 -0.13707352 C36.27583342 -0.15568467 39.2654353 -0.16090464 42.25517464 -0.16243744 C43.69012425 -0.16546725 45.12507226 -0.17350686 46.55996513 -0.18662262 C48.56594823 -0.20365168 50.57207501 -0.19996262 52.578125 -0.1953125 C53.72014877 -0.19895813 54.86217255 -0.20260376 56.0388031 -0.20635986 C58.85375977 0.16113281 58.85375977 0.16113281 60.75770569 1.48809814 C61.85375977 3.16113281 61.85375977 3.16113281 61.66625977 6.28613281 C61.39813477 7.23488281 61.13000977 8.18363281 60.85375977 9.16113281 C58.08088652 10.54756944 55.81034659 10.30370132 52.70751953 10.32226562 C50.77024742 10.33667694 50.77024742 10.33667694 48.7938385 10.35137939 C47.37761613 10.35622662 45.96139171 10.36050563 44.54516602 10.36425781 C43.09789528 10.37000871 41.65062457 10.37576645 40.20335388 10.38153076 C37.1677922 10.39204007 34.13225701 10.39788339 31.09667969 10.40136719 C27.20475769 10.40685621 23.31318481 10.43089283 19.42137241 10.45933914 C16.43168612 10.47795029 13.44208423 10.48317026 10.45234489 10.48470306 C9.01739528 10.48773287 7.58244727 10.49577248 6.1475544 10.50888824 C4.1415713 10.52591731 2.13544452 10.52222824 0.12939453 10.51757812 C-1.01262924 10.52122375 -2.15465302 10.52486938 -3.33128357 10.52862549 C-6.14624023 10.16113281 -6.14624023 10.16113281 -8.05018616 8.83416748 C-9.14624023 7.16113281 -9.14624023 7.16113281 -8.95874023 4.03613281 C-8.69061523 3.08738281 -8.42249023 2.13863281 -8.14624023 1.16113281 C-5.37336699 -0.22530381 -3.10282706 0.01856431 0 0 Z " fill="#FBFEFE" transform="translate(232.146240234375,205.8388671875)"/>
<path d="M0 0 C0.83096191 -0.00945648 1.66192383 -0.01891296 2.51806641 -0.02865601 C3.41187012 -0.02258331 4.30567383 -0.01651062 5.2265625 -0.01025391 C6.14743652 -0.01312408 7.06831055 -0.01599426 8.01708984 -0.01895142 C9.96387344 -0.02099272 11.91067752 -0.01545824 13.85742188 -0.00292969 C16.84030949 0.01312303 19.82184211 -0.00277613 22.8046875 -0.02197266 C24.6953155 -0.01999024 26.58594265 -0.01614659 28.4765625 -0.01025391 C29.37036621 -0.0163266 30.26416992 -0.02239929 31.18505859 -0.02865601 C32.43150146 -0.01447128 32.43150146 -0.01447128 33.703125 0 C34.79874756 0.00358017 34.79874756 0.00358017 35.91650391 0.00723267 C38.4162915 0.49936061 39.31266224 1.39058702 40.8515625 3.38818359 C41.1640625 5.95068359 41.1640625 5.95068359 40.8515625 8.38818359 C38.4453003 10.7944458 37.90049073 10.64019819 34.6171875 10.64697266 C33.74288086 10.65327698 32.86857422 10.6595813 31.96777344 10.66607666 C30.54899902 10.66000397 30.54899902 10.66000397 29.1015625 10.65380859 C28.13250977 10.65572205 27.16345703 10.6576355 26.16503906 10.65960693 C24.11392965 10.66096939 22.06281164 10.65726877 20.01171875 10.64892578 C16.86438711 10.63822719 13.7176263 10.64881913 10.5703125 10.66162109 C8.5807279 10.66029951 6.59114366 10.65773714 4.6015625 10.65380859 C3.65571289 10.65785706 2.70986328 10.66190552 1.73535156 10.66607666 C0.86104492 10.65977234 -0.01326172 10.65346802 -0.9140625 10.64697266 C-1.68524414 10.64538147 -2.45642578 10.64379028 -3.25097656 10.64215088 C-5.1484375 10.38818359 -5.1484375 10.38818359 -7.1484375 8.38818359 C-7.50963602 5.57083511 -7.65333661 4.04357677 -5.88818359 1.75228882 C-3.75263798 0.07784394 -2.6891056 0.0087872 0 0 Z " fill="#F2FEFC" transform="translate(253.1484375,156.61181640625)"/>
</svg>
